<svg id="sources/DB22" xmlns="http://www.w3.org/2000/svg" xmlns:xlink="http://www.w3.org/1999/xlink" version="1.1"
     y="0px" viewBox="0 0 120 135" style="enable-background:new 0 0 120 135;" xml:space="preserve"> <style
        type="text/css"> .st0{fill:#009A2B;} .st1{fill:#FFFFFF;} .st2{fill-rule:evenodd;clip-rule:evenodd;fill:#FFFFFF;} </style>
    <path class="st0"
          d="M52,4.6L9.6,29.2c-4.9,2.9-8,8.1-8,13.8v49c0,5.7,3,11,8,13.8L52,130.4c4.9,2.9,11,2.9,16,0l42.5-24.5 c4.9-2.9,8-8.1,8-13.8V43c0-5.7-3-11-8-13.8L68,4.6C63,1.8,57,1.8,52,4.6z"></path>
    <g> <g> <path class="st1"
                  d="M44.8,74.3h3.3c1.9,0,3.3,0.6,4.4,1.8c1.1,1.2,1.7,2.9,1.7,5.1c0,2.3-0.5,4-1.6,5.2c-1.1,1.2-2.6,1.8-4.6,1.8 h-3.2V74.3z M47.8,76.8v8.9h0.4c0.6,0,1.2-0.2,1.9-0.7c0.7-0.5,1-1.7,1-3.5c0-1.4-0.1-2.4-0.4-2.9c-0.2-0.6-0.6-1-1.1-1.3 c-0.5-0.3-1-0.4-1.5-0.4H47.8z"></path>
        <path class="st1"
              d="M63.1,81.2c0.8,0.4,1.4,0.8,1.7,1.4c0.3,0.5,0.5,1.3,0.5,2.1c0,1-0.4,1.8-1.1,2.5c-0.7,0.7-1.6,1-2.6,1h-5 v-14h4.3c1.2,0,2.2,0.3,3,1c0.8,0.7,1.2,1.5,1.2,2.5c0,0.8-0.2,1.5-0.5,2C64.2,80.4,63.7,80.9,63.1,81.2z M59.6,80.2h0.6 c0.5,0,0.9-0.2,1.2-0.5c0.3-0.3,0.5-0.8,0.5-1.3c0-1.3-0.6-1.9-1.9-1.9h-0.4V80.2z M59.6,86l0.9,0c0.5,0,0.9-0.2,1.2-0.5 c0.3-0.3,0.4-0.8,0.4-1.3c0-1.2-0.6-1.8-1.9-1.8h-0.6V86z"></path>
        <path class="st1"
              d="M67.1,79.4l0.1-1.1c0-1.1,0.2-1.9,0.5-2.5c0.3-0.6,0.8-1,1.4-1.4c0.7-0.3,1.4-0.5,2.2-0.5 c1.2,0,2.2,0.3,2.9,1c0.7,0.7,1.1,1.6,1.1,2.7c0,0.7-0.1,1.3-0.4,2.1c-0.3,0.7-0.8,1.6-1.5,2.7l-2,3h3.5v2.7H67v-0.9l4.7-7.2 c0.1-0.2,0.3-0.5,0.4-1c0.2-0.5,0.2-0.8,0.2-1.1c0-0.4-0.1-0.8-0.3-1.1c-0.2-0.3-0.5-0.4-0.9-0.4c-0.4,0-0.8,0.2-1,0.6 c-0.2,0.4-0.4,0.9-0.4,1.6v0.7H67.1z"></path> </g>
        <path class="st2"
              d="M81.5,34.4H38.6c-6.4,0-11.7,5.3-11.7,11.7V89c0,6.4,5.3,11.7,11.7,11.7h42.9c6.4,0,11.7-5.3,11.7-11.7V46.1 C93.2,39.6,87.9,34.4,81.5,34.4z M80.2,60v-1.5H88V60H80.2z M88,61.4v1.5h-7.9v-1.5H88z M84.9,55.4V57h-4.7v-1.5H84.9z M80.2,54 v-1.5h4.7V54H80.2z M79.2,40.5H88v1.5h-9.3L79.2,40.5z M78.1,43.5H88V45H77.6L78.1,43.5z M77.1,46.5h7.9V48h-8.4L77.1,46.5z M75.6,50.8l0.5-1.3h8.9V51h-4.7v-0.9L79.9,51h-8.6l-0.3-0.9V51h-4.7v-1.5h8.9L75.6,50.8z M74.5,60l-0.6-1.5h3.3L76.7,60H74.5z M76.2,61.4l-0.6,1.5l-0.1,0L75,61.4H76.2z M73.4,57l-0.6-1.5h5.5L77.8,57H73.4z M72.4,54l-0.6-1.5h7.6L78.8,54H72.4z M63.2,60 v-1.5h7.8V60H63.2z M70.9,61.4v1.5h-7.8v-1.5H70.9z M66.2,57v-1.5h4.7V57H66.2z M66.2,54v-1.5h4.7V54H66.2z M74.6,48h-8.4v-1.5H74 L74.6,48z M63.1,40.5h8.8l0.6,1.5h-9.4V40.5z M63.1,43.5H73l0.5,1.5H63.1V43.5z M47.6,54v-1.5h12.1c0,0,1,0.8,1.3,1.5H47.6z M52.3,55.4V57h-4.7v-1.5H52.3z M61,49.5c-0.3,0.7-1.3,1.5-1.3,1.5H47.6v-1.5H61z M47.6,48v-1.5h4.7V48H47.6z M56.9,55.4h4.7 c0,0,0.3,0.8,0.3,1.5h-5V55.4z M61.7,48h-4.7v-1.5h5C62,47.2,61.7,48,61.7,48z M44.5,40.5h11.8c2.1,0,3.7,1.5,3.7,1.5H44.5V40.5z M44.5,43.5h16.8c0.4,0.4,0.6,1.5,0.6,1.5H44.5V43.5z M44.5,58.4h17.3c0,0-0.2,1.2-0.6,1.5H44.5V58.4z M44.5,61.4H60 c0,0-1.6,1.5-3.7,1.5H44.5V61.4z M32.1,60v-1.5H43V60H32.1z M43,61.4v1.5H32.1v-1.5H43z M39.9,49.5V51h-4.7v-1.5H39.9z M35.2,48 v-1.5h4.7V48H35.2z M39.9,52.5V54h-4.7v-1.5H39.9z M39.9,55.4V57h-4.7v-1.5H39.9z M32.1,40.5H43v1.5H32.1V40.5z M32.1,43.5H43V45 H32.1V43.5z M90.4,89c0,4.9-4,8.9-8.9,8.9H38.6c-4.9,0-8.9-4-8.9-8.9V67.5h60.7V89z"></path> </g> </svg>